P3
20 20
255
52  80  145 52  80  145 52  80  145 52  80  145 53  81  146 53  81  146 53  80  147 53  80  147 57  84  151 58  85  152 58  85  154 58  85  154 58  85  154 59  86  155 59  86  157 59  86  157 62  84  159 62  84  159 62  84  159 62  84  159 
55  83  148 55  83  148 56  84  149 56  84  149 56  84  149 56  84  149 56  83  150 57  84  151 58  85  152 58  85  152 58  85  154 58  85  154 58  85  154 59  86  155 59  86  157 59  86  157 62  84  159 62  84  159 62  84  159 62  84  159 
58  86  151 58  86  151 58  85  152 59  86  153 59  86  153 59  86  153 59  86  155 60  87  156 58  85  154 58  85  154 58  85  156 58  85  156 59  86  157 59  86  157 59  86  157 59  86  157 62  84  159 62  84  159 62  84  159 62  84  159 
57  84  151 58  85  152 58  85  152 58  85  152 58  85  152 59  86  153 59  86  155 59  86  155 58  85  154 58  85  156 58  85  156 59  86  157 59  86  157 59  86  157 59  86  157 62  86  160 62  84  159 62  84  159 62  84  160 62  84  159 
57  81  151 57  81  151 57  81  151 57  81  151 57  81  151 58  82  152 58  82  154 58  82  154 60  84  156 61  85  159 61  85  159 61  85  159 61  85  159 62  86  160 62  86  160 62  85  161 62  84  160 62  84  160 62  83  162 62  84  160 
56  80  152 56  80  150 56  80  152 56  80  150 57  81  153 57  81  153 57  81  153 57  81  155 61  85  159 61  85  159 61  85  159 61  85  159 62  85  161 62  85  161 62  85  161 62  85  163 62  83  162 62  83  162 62  83  164 62  83  162 
60  82  157 60  82  155 60  82  157 60  82  155 61  83  158 61  83  158 61  83  158 61  83  159 62  84  160 62  84  160 62  84  160 63  85  161 63  84  163 63  84  163 63  84  163 63  84  163 64  82  164 64  82  164 64  82  166 64  82  164 
63  85  161 64  86  161 64  86  162 64  86  161 64  86  162 65  87  163 65  87  163 65  87  163 62  83  162 62  83  162 62  83  162 63  84  163 63  84  165 63  84  163 63  84  165 64  85  166 64  82  166 64  82  166 64  82  166 64  82  166 
64  83  162 64  83  160 65  84  163 65  84  161 66  85  164 66  85  164 67  86  165 67  86  165 63  81  163 64  82  164 67  85  167 69  87  169 70  88  172 69  87  169 67  85  169 66  84  168 67  85  169 67  85  171 68  86  172 68  86  172 
65  84  163 65  84  163 66  85  164 66  85  164 67  85  167 67  85  167 68  86  168 68  86  168 63  81  163 65  83  167 68  86  170 70  88  172 71  89  175 70  88  172 68  86  172 67  85  171 68  86  172 68  86  172 69  86  174 69  87  173 
67  84  166 68  85  167 68  85  167 69  86  168 69  85  170 70  86  171 70  86  171 70  86  171 66  82  167 68  84  171 71  87  174 73  89  176 74  90  178 73  89  176 71  87  175 70  86  174 72  88  176 72  88  176 72  87  178 73  89  177 
69  85  170 70  86  171 70  86  171 70  86  171 71  87  172 72  88  173 72  88  173 72  88  175 68  84  171 70  86  173 73  89  177 75  91  179 76  92  180 75  91  179 73  89  177 72  87  178 75  90  181 75  90  181 76  91  184 76  91  182 
72  86  174 73  87  175 73  87  175 74  88  176 74  88  176 75  89  177 75  89  177 75  89  178 71  85  174 73  87  176 76  89  181 78  91  183 79  92  184 79  92  184 77  90  182 76  89  183 78  93  186 78  93  186 79  94  189 79  94  187 
74  88  176 75  89  177 75  89  177 75  89  177 76  90  178 76  90  178 77  91  180 77  91  180 74  88  177 75  89  178 78  91  183 81  94  186 81  94  186 81  94  186 79  92  186 78  91  185 81  96  191 82  97  192 82  97  192 83  98  193 
76  90  178 76  90  178 76  90  179 77  91  180 77  91  180 78  92  181 78  91  183 79  92  184 75  88  180 77  90  182 80  93  187 82  95  189 83  96  190 83  96  190 81  94  188 80  93  187 84  99  194 84  99  194 85  100 195 85  100 195 
79  90  180 77  91  180 79  90  182 78  91  183 80  91  183 79  92  184 81  91  186 79  92  186 78  88  183 78  91  185 83  93  188 83  96  190 86  96  193 83  96  190 84  94  191 81  94  190 86  98  196 86  98  196 87  99  197 87  99  197 
81  89  187 80  90  187 82  90  188 82  92  189 84  92  190 84  94  191 85  93  191 85  95  192 90  98  196 89  99  196 90  98  196 89  99  196 90  98  197 89  99  196 90  98  197 89  99  197 97  106 207 97  106 209 97  106 209 97  106 209 
84  91  179 84  92  177 84  91  179 85  93  178 86  93  181 87  95  180 87  94  182 87  95  180 93  100 188 93  101 186 93  100 188 93  101 186 93  100 188 93  101 186 93  100 188 93  100 188 99  106 197 99  106 197 99  106 197 99  106 197 
92  98  160 92  98  158 93  99  161 93  99  159 94  100 162 94  100 160 94  100 162 94  100 160 103 109 171 103 109 169 103 109 171 103 109 169 103 109 171 103 109 169 103 109 171 103 109 171 105 110 174 105 110 176 105 110 176 105 110 176 
244 250 255 244 250 255 245 251 255 245 251 255 245 251 255 245 251 255 245 251 255 245 251 255 244 250 255 244 250 255 244 250 255 244 250 255 244 250 255 244 250 255 244 250 255 244 250 255 244 250 255 244 250 255 244 250 255 244 250 255 
